<?xml version="1.0" encoding="utf-8"?>
<!-- Generator: Adobe Illustrator 21.0.2, SVG Export Plug-In . SVG Version: 6.00 Build 0)  -->
<svg version="1.1" id="Capa_1" xmlns="http://www.w3.org/2000/svg" xmlns:xlink="http://www.w3.org/1999/xlink" x="0px" y="0px"
	 viewBox="0 0 159.8 64" enable-background="new 0 0 159.8 64" xml:space="preserve">
<g>
	<g>
		<polygon fill="#FFFFFF" points="927.4,265.1 936.7,210.2 951.6,210.2 942.3,265.1 		"/>
		<path fill="#FFFFFF" d="M996.5,211.6c-3-1.1-7.6-2.3-13.4-2.3c-14.8,0-25.2,7.4-25.3,18.1c-0.1,7.9,7.4,12.3,13.1,14.9
			c5.8,2.7,7.8,4.4,7.7,6.8c0,3.7-4.6,5.4-8.9,5.4c-6,0-9.2-0.8-14.1-2.9l-1.9-0.9l-2.1,12.3c3.5,1.5,9.9,2.9,16.7,2.9
			c15.7,0,25.9-7.4,26-18.7c0.1-6.2-3.9-11-12.6-14.9c-5.2-2.5-8.4-4.2-8.4-6.8c0-2.3,2.7-4.7,8.6-4.7c4.9-0.1,8.4,1,11.2,2.1
			l1.3,0.6L996.5,211.6"/>
		<path fill="#FFFFFF" d="M1034.8,210.3h-11.6c-3.6,0-6.3,1-7.8,4.5l-22.2,50.3h15.7c0,0,2.6-6.8,3.1-8.2c1.7,0,17,0,19.1,0
			c0.4,1.9,1.8,8.2,1.8,8.2h13.9L1034.8,210.3 M1016.4,245.6c1.2-3.2,6-15.3,6-15.3c-0.1,0.1,1.2-3.2,2-5.2l1,4.7
			c0,0,2.9,13.1,3.5,15.8H1016.4z"/>
		<path fill="#FFFFFF" d="M914.8,210.2l-14.6,37.4l-1.6-7.6c-2.7-8.8-11.2-18.3-20.7-23l13.4,48l15.8,0l23.5-54.7H914.8"/>
		<path fill="#FFFFFF" d="M886.6,210.2h-24.1l-0.2,1.1c18.8,4.5,31.2,15.5,36.3,28.7l-5.2-25.2C892.5,211.4,889.9,210.3,886.6,210.2
			"/>
	</g>
</g>
<g>
	<path fill="#FFFFFF" d="M0,39.8v-0.1c0-9.9,7.5-18.2,18.1-18.2c5.3,0,8.8,1.3,12,3.6c0.6,0.5,1.3,1.3,1.3,2.5
		c0,1.7-1.4,3.1-3.1,3.1c-0.8,0-1.4-0.4-1.9-0.7c-2.3-1.7-4.7-2.8-8.5-2.8c-6.5,0-11.4,5.7-11.4,12.4v0.1c0,7.2,4.8,12.6,11.9,12.6
		c3.3,0,6.3-1.1,8.5-2.7V43H20c-1.5,0-2.8-1.2-2.8-2.7c0-1.5,1.3-2.7,2.8-2.7h9.8c1.8,0,3.1,1.4,3.1,3.1v9.4c0,1.8-0.7,3-2.2,3.9
		c-3,2-7.2,3.8-12.5,3.8C7.2,57.9,0,50.1,0,39.8 M38.4,23.4c0-1.7,1.3-3,3-3c0,0,0,0,0,0c1.7,0,3.1,1.4,3.1,3v31.2
		c0,1.7-1.4,3-3.1,3c-1.7,0-3-1.3-3-3c0,0,0,0,0,0L38.4,23.4z M71.3,44.2L71.3,44.2c0-4.8-3.4-8.7-8.1-8.7c-4.9,0-8,3.8-8,8.5v0.1
		c0,4.6,3.4,8.5,8.1,8.5C68.2,52.6,71.3,48.8,71.3,44.2 M49.1,44.2L49.1,44.2c0-7.7,6-14,14.1-14c8.1,0,14.1,6.2,14.1,13.8v0.1
		c0,7.5-6,13.8-14.2,13.8C55.1,57.9,49.1,51.7,49.1,44.2 M92.5,57.8h-0.3c-1.7,0-2.8-1.1-3.5-2.7l-8.8-20.3c-0.2-0.5-0.4-1-0.4-1.5
		c0-1.5,1.4-2.9,3-2.9c1.7,0,2.5,1,3,2.2l6.8,17.6l6.9-17.7c0.5-1.1,1.3-2.1,2.9-2.1c1.7,0,3,1.3,3,2.9c0,0.6-0.2,1.2-0.3,1.5
		L96,55.2C95.3,56.7,94.2,57.8,92.5,57.8 M129.5,44.2L129.5,44.2c0-4.8-3.4-8.7-8.1-8.7c-4.9,0-8,3.8-8,8.5v0.1
		c0,4.6,3.4,8.5,8.1,8.5C126.4,52.6,129.5,48.8,129.5,44.2 M107.4,44.2L107.4,44.2c0-7.7,6-14,14.1-14c8.1,0,14.1,6.2,14.1,13.8v0.1
		c0,7.5-6,13.8-14.2,13.8C113.3,57.9,107.4,51.7,107.4,44.2"/>
	<g transform="translate(80.336 .488)">
		<defs>
			<filter id="Adobe_OpacityMaskFilter" filterUnits="userSpaceOnUse" x="53.5" y="5.6" width="23.8" height="29.4">
				<feColorMatrix  type="matrix" values="1 0 0 0 0  0 1 0 0 0  0 0 1 0 0  0 0 0 1 0"/>
			</filter>
		</defs>
		<mask maskUnits="userSpaceOnUse" x="53.5" y="5.6" width="23.8" height="29.4" id="b_2_">
			<g filter="url(#Adobe_OpacityMaskFilter)">
				<path id="a_2_" fill="#FFFFFF" d="M53.5,5.6h23.8V35H53.5L53.5,5.6L53.5,5.6z"/>
			</g>
		</mask>
		<path mask="url(#b_2_)" fill="#F2CC38" d="M70.3,21.1L70,21.5L65.4,28l-4.6-6.5l-0.3-0.5c-2-2.7-1.3-6.5,1.4-8.5
			c1-0.7,2.3-1.1,3.5-1.1c3.3,0,6.1,2.7,6,6.1C71.4,18.8,71,20.1,70.3,21.1 M65.4,5.6c-6.6,0-11.9,5.4-11.9,12c0,2.5,0.8,4.9,2.2,7
			L56,25l6.2,8.8c0,0,0.8,1.2,2.4,1.2h1.5c1.7,0,2.4-1.2,2.4-1.2l6.2-8.8l0.3-0.4c1.5-2,2.2-4.5,2.2-7C77.3,10.9,72,5.6,65.4,5.6"/>
	</g>
	<path fill="#F2CC38" d="M142.4,40.9L142.4,40.9c0-1.8,1.4-3.3,3.3-3.3c1.9,0,3.3,1.5,3.3,3.2v0c0,1.8-1.4,3.3-3.3,3.3
		C143.8,44.1,142.4,42.6,142.4,40.9"/>
</g>
</svg>
