<?xml version="1.0" encoding="utf-8"?>
<!-- Generator: Adobe Illustrator 21.0.2, SVG Export Plug-In . SVG Version: 6.00 Build 0)  -->
<svg version="1.1" id="Capa_1" xmlns="http://www.w3.org/2000/svg" xmlns:xlink="http://www.w3.org/1999/xlink" x="0px" y="0px"
	 viewBox="0 0 26 26" enable-background="new 0 0 26 26" xml:space="preserve">
<path fill="#FFFFFF" d="M9.9,13.6c0.6-0.3,1-0.8,1.5-0.8c0.2,0,0.8,0.7,0.8,1c-0.1,0.6-0.5,1.4-0.9,1.5c-0.8,0.2-1.8,0.2-2.5-0.1
	c-1.1-0.5-1.4-1.7-1.3-2.9c0.3-3.1,3.7-4.9,6.9-3.6c2.9,1.2,4.4,4.5,3.6,7.8c-1.5,6-9.2,8-14.1,3.7C-1.4,15.3-0.1,6.2,6.5,2.7
	c7.5-4,16.9,0.6,18.5,9.1c0.8,4.5-0.2,8.5-3,12.1c-0.2,0.3-0.5,0.7-0.8,0.8c-0.3,0.1-0.9,0.1-1.1-0.1c-0.2-0.2-0.2-0.8-0.1-1.1
	c0.3-0.6,0.9-1.1,1.3-1.7c4.7-6.9,1.6-16.3-6.1-18.4C9,1.8,3.2,5.6,2.5,11.7c-0.6,5.5,4.4,10,9.6,8.6c3.2-0.9,5.1-4.2,4.2-7.3
	c-0.7-2.1-2.7-3.3-4.7-2.9C9.6,10.5,8.9,12.3,9.9,13.6z"/>
</svg>
