<?xml version="1.0" encoding="utf-8"?>
<!-- Generator: Adobe Illustrator 21.0.2, SVG Export Plug-In . SVG Version: 6.00 Build 0)  -->
<svg version="1.1" id="Capa_1" xmlns="http://www.w3.org/2000/svg" xmlns:xlink="http://www.w3.org/1999/xlink" x="0px" y="0px"
	 viewBox="0 0 298 98" enable-background="new 0 0 298 98" xml:space="preserve">
<g>
	<path fill="#FFFFFF" d="M254.3,38.2c1.5-0.9,2.7-2,3.9-2.2c0.6-0.1,2.1,1.8,2,2.5c-0.3,1.5-1.2,3.7-2.3,3.9c-2,0.5-4.6,0.5-6.4-0.4
		c-2.8-1.4-3.6-4.5-3.3-7.5c0.8-8,9.5-12.5,17.7-9.2c7.5,3.1,11.4,11.5,9.3,19.9c-3.9,15.3-23.5,20.4-36.1,9.4
		c-13.8-12.1-10.5-35.4,6.5-44.5c19.1-10.3,43.3,1.6,47.4,23.4c2.2,11.5-0.5,21.8-7.8,31c-0.6,0.8-1.2,1.7-2,2
		c-0.9,0.3-2.3,0.3-2.9-0.2c-0.5-0.5-0.6-2.1-0.2-2.8c0.9-1.6,2.3-2.8,3.3-4.3c12.1-17.7,4.1-41.7-15.7-47.1
		c-15.8-4.3-30.7,5.5-32.5,21.2c-1.6,14.2,11.4,25.7,24.6,22c8.3-2.3,13.2-10.9,10.7-18.6c-1.7-5.4-6.9-8.6-12.1-7.5
		C253.5,30.2,251.5,34.9,254.3,38.2z"/>
	<g>
		<path fill="#FFFFFF" d="M36.8,61.4h-3.2L5,35.3v26.1H3V4.4h2V30L32.1,4.4h3L5.3,32.7L36.8,61.4z"/>
		<path fill="#FFFFFF" d="M52,63c-2.1,0-4.1-0.4-6-1.2c-1.9-0.8-3.6-1.9-5-3.3c-1.4-1.4-2.5-3.1-3.3-4.9c-0.8-1.9-1.2-3.9-1.2-6.1
			v-4.9c0-2.2,0.4-4.2,1.2-6.1c0.8-1.9,1.9-3.6,3.3-5c1.4-1.4,3-2.5,4.9-3.3c1.9-0.8,3.9-1.2,6-1.2s4.1,0.4,6,1.2
			c1.9,0.8,3.5,1.9,4.9,3.3c1.4,1.4,2.5,3.1,3.3,5c0.8,1.9,1.2,3.9,1.2,6.1v2.1H38.6v2.8c0,1.9,0.4,3.6,1.1,5.2
			c0.7,1.6,1.7,3.1,2.9,4.3c1.2,1.2,2.6,2.2,4.2,2.9c1.6,0.7,3.3,1.1,5.2,1.1c2.6,0,4.9-0.7,7-2c2.1-1.3,3.8-3.1,4.9-5.4l2,1.1
			c-1.4,2.6-3.3,4.7-5.8,6.2C57.7,62.2,54.9,63,52,63z M65.1,42.4c0-1.9-0.4-3.6-1.1-5.2c-0.7-1.6-1.7-3-2.9-4.2
			C60,31.7,58.6,30.8,57,30c-1.6-0.7-3.3-1.1-5.2-1.1c-1.8,0-3.5,0.4-5.1,1.1c-1.6,0.7-3,1.7-4.2,2.9c-1.2,1.2-2.1,2.6-2.9,4.2
			c-0.7,1.6-1.1,3.4-1.1,5.2H65.1z"/>
		<path fill="#FFFFFF" d="M105.2,61.4h-3.2L73.4,35.3v26.1h-2V4.4h2V30l27.1-25.6h3L73.7,32.7L105.2,61.4z"/>
		<path fill="#FFFFFF" d="M120.4,63c-2.1,0-4.1-0.4-6-1.2c-1.9-0.8-3.6-1.9-5-3.3c-1.4-1.4-2.5-3.1-3.3-4.9
			c-0.8-1.9-1.2-3.9-1.2-6.1v-4.9c0-2.2,0.4-4.2,1.2-6.1c0.8-1.9,1.9-3.6,3.3-5c1.4-1.4,3-2.5,4.9-3.3c1.9-0.8,3.9-1.2,6-1.2
			s4.1,0.4,6,1.2c1.9,0.8,3.5,1.9,4.9,3.3c1.4,1.4,2.5,3.1,3.3,5c0.8,1.9,1.2,3.9,1.2,6.1v2.1H107v2.8c0,1.9,0.4,3.6,1.1,5.2
			c0.7,1.6,1.7,3.1,2.9,4.3c1.2,1.2,2.6,2.2,4.2,2.9c1.6,0.7,3.3,1.1,5.2,1.1c2.6,0,4.9-0.7,7-2c2.1-1.3,3.8-3.1,4.9-5.4l2,1.1
			c-1.4,2.6-3.3,4.7-5.8,6.2C126.1,62.2,123.3,63,120.4,63z M133.5,42.4c0-1.9-0.4-3.6-1.1-5.2c-0.7-1.6-1.7-3-2.9-4.2
			c-1.2-1.2-2.6-2.2-4.2-2.9c-1.6-0.7-3.3-1.1-5.2-1.1c-1.8,0-3.5,0.4-5.1,1.1c-1.6,0.7-3,1.7-4.2,2.9c-1.2,1.2-2.1,2.6-2.9,4.2
			c-0.7,1.6-1.1,3.4-1.1,5.2H133.5z"/>
		<path fill="#FFFFFF" d="M142,36.2c1.5-2.8,3.7-5.1,6.4-6.8c2.7-1.7,5.8-2.6,9.2-2.6c2.4,0,4.8,0.5,6.9,1.4c2.2,1,4.1,2.2,5.7,3.9
			c1.6,1.6,2.9,3.5,3.8,5.7c0.9,2.2,1.4,4.6,1.4,7.1c0,2.5-0.5,4.8-1.4,7c-0.9,2.2-2.2,4.1-3.8,5.7c-1.6,1.6-3.5,2.9-5.7,3.9
			c-2.2,1-4.5,1.4-6.9,1.4c-3.4,0-6.4-0.9-9.2-2.6c-2.7-1.7-4.9-4-6.4-6.7v40h-2.2V26.9h2.2V36.2z M157.6,60.9
			c2.2,0,4.2-0.4,6.1-1.3c1.9-0.8,3.6-2,5-3.4c1.4-1.4,2.5-3.1,3.3-5c0.8-1.9,1.2-4,1.2-6.2c0-2.2-0.4-4.2-1.2-6.2
			c-0.8-1.9-1.9-3.6-3.3-5c-1.4-1.4-3.1-2.5-5-3.4c-1.9-0.8-3.9-1.3-6.1-1.3c-2.1,0-4.1,0.4-6,1.3c-1.9,0.8-3.6,2-5,3.4
			c-1.4,1.4-2.5,3.1-3.3,5c-0.8,1.9-1.2,4-1.2,6.2c0,2.2,0.4,4.2,1.2,6.2c0.8,1.9,1.9,3.6,3.3,5c1.4,1.4,3.1,2.5,5,3.4
			C153.5,60.4,155.5,60.9,157.6,60.9z"/>
		<path fill="#FFFFFF" d="M211.6,30.3h2.2v31.1h-2.2v-7.1c-1.5,2.6-3.6,4.7-6.2,6.3c-2.6,1.6-5.5,2.4-8.7,2.4
			c-2.3,0-4.6-0.4-6.6-1.3c-2.1-0.9-3.9-2.1-5.5-3.7c-1.5-1.5-2.8-3.4-3.7-5.5c-0.9-2.1-1.3-4.3-1.3-6.6c0-2.4,0.4-4.6,1.3-6.7
			c0.9-2.1,2.1-3.9,3.7-5.4c1.5-1.5,3.4-2.8,5.5-3.7c2.1-0.9,4.3-1.3,6.6-1.3c3.2,0,6.1,0.8,8.7,2.4c2.6,1.6,4.7,3.7,6.2,6.3V30.3z
			 M196.7,60.8c2.1,0,4-0.4,5.8-1.2c1.8-0.8,3.4-1.8,4.7-3.2c1.3-1.3,2.4-2.9,3.2-4.7c0.8-1.8,1.2-3.8,1.2-5.8c0-2.1-0.4-4-1.2-5.8
			c-0.8-1.8-1.8-3.4-3.2-4.7c-1.3-1.4-2.9-2.4-4.7-3.2c-1.8-0.8-3.8-1.1-5.8-1.1c-2.1,0-4,0.4-5.8,1.1c-1.8,0.8-3.4,1.8-4.7,3.2
			c-1.3,1.4-2.4,2.9-3.2,4.7c-0.8,1.8-1.2,3.7-1.2,5.8c0,2.1,0.4,4,1.2,5.8c0.8,1.8,1.8,3.4,3.2,4.7c1.3,1.3,2.9,2.4,4.7,3.2
			C192.6,60.4,194.6,60.8,196.7,60.8z M194.5,19.6l2.3-8.7l2,0.6l-2.4,8.6L194.5,19.6z"/>
	</g>
</g>
</svg>
