<?xml version="1.0" encoding="utf-8"?>
<!-- Generator: Adobe Illustrator 21.0.2, SVG Export Plug-In . SVG Version: 6.00 Build 0)  -->
<svg version="1.1" id="Capa_1" xmlns="http://www.w3.org/2000/svg" xmlns:xlink="http://www.w3.org/1999/xlink" x="0px" y="0px"
	 viewBox="0 0 26 26" enable-background="new 0 0 26 26" xml:space="preserve">
<g>
	<g>
		<g>
			<path fill="#FFFFFF" d="M25.1,4.3c-0.1-0.2-0.3-0.3-0.6-0.3H5.7L5.2,1.8C5.1,1.5,4.9,1.2,4.5,1.2H1.5c-0.4,0-0.7,0.3-0.7,0.7
				s0.3,0.7,0.7,0.7H4l3.6,15.4c0.1,0.3,0.4,0.5,0.7,0.5h14.1c0.4,0,0.7-0.3,0.7-0.7c0-0.4-0.3-0.7-0.7-0.7H8.8l-0.5-2.4h14.2
				c0.3,0,0.6-0.2,0.7-0.6l2.1-9.4C25.3,4.7,25.2,4.5,25.1,4.3z M21.8,13.5H7.9l-1.8-8h17.6L21.8,13.5z"/>
		</g>
	</g>
	<g>
		<g>
			<path fill="#FFFFFF" d="M11.1,19.6c-1.4,0-2.6,1.2-2.6,2.6s1.2,2.6,2.6,2.6c1.4,0,2.6-1.2,2.6-2.6S12.5,19.6,11.1,19.6z
				 M11.1,23.4c-0.6,0-1.2-0.5-1.2-1.2s0.5-1.2,1.2-1.2c0.6,0,1.2,0.5,1.2,1.2S11.8,23.4,11.1,23.4z"/>
		</g>
	</g>
	<g>
		<g>
			<path fill="#FFFFFF" d="M19.6,19.6c-1.4,0-2.6,1.2-2.6,2.6s1.2,2.6,2.6,2.6c1.4,0,2.6-1.2,2.6-2.6S21,19.6,19.6,19.6z M19.6,23.4
				c-0.6,0-1.2-0.5-1.2-1.2s0.5-1.2,1.2-1.2s1.2,0.5,1.2,1.2S20.2,23.4,19.6,23.4z"/>
		</g>
	</g>
</g>
</svg>
