<?xml version="1.0" encoding="utf-8"?>
<!-- Generator: Adobe Illustrator 21.0.2, SVG Export Plug-In . SVG Version: 6.00 Build 0)  -->
<svg version="1.1" id="Capa_1" xmlns="http://www.w3.org/2000/svg" xmlns:xlink="http://www.w3.org/1999/xlink" x="0px" y="0px"
	 viewBox="0 0 133.5 86" enable-background="new 0 0 133.5 86" xml:space="preserve">
<g>
	<rect x="48.1" y="12.6" fill="#FF5F00" width="37.2" height="60.8"/>
	<path fill="#EB001B" d="M52,43c0-11.9,5.4-23.1,14.8-30.4C49.9-0.6,25.6,2.3,12.4,19.1S2.1,60.2,18.9,73.4c14,11,33.8,11,47.8,0
		C57.4,66.1,52,54.9,52,43z"/>
	<path fill="#F79E1B" d="M125.6,67v-1.2h0.5v-0.3h-1.3v0.3h0.5V67H125.6z M128.1,67v-1.5h-0.4l-0.5,1.1l-0.5-1.1h-0.4V67h0.3v-1.1
		l0.4,1h0.3l0.4-1V67L128.1,67z"/>
	<path fill="#F79E1B" d="M129.3,43c0,21.4-17.3,38.7-38.7,38.7c-8.7,0-17.1-2.9-23.9-8.3c16.8-13.2,19.7-37.5,6.5-54.3
		c-1.9-2.4-4.1-4.6-6.5-6.5c16.8-13.2,41.1-10.3,54.3,6.5C126.4,25.9,129.3,34.3,129.3,43L129.3,43z"/>
</g>
</svg>
