<?xml version="1.0" encoding="utf-8"?>
<!-- Generator: Adobe Illustrator 21.0.2, SVG Export Plug-In . SVG Version: 6.00 Build 0)  -->
<svg version="1.1" id="Capa_1" xmlns="http://www.w3.org/2000/svg" xmlns:xlink="http://www.w3.org/1999/xlink" x="0px" y="0px"
	 viewBox="0 0 26 26" enable-background="new 0 0 26 26" xml:space="preserve">
<g>
	<g>
		<g>
			<path fill="#FFFFFF" d="M13,1.2c-3.4,0-6.1,2.7-6.1,6.1s2.7,6.1,6.1,6.1s6.1-2.7,6.1-6.1S16.4,1.2,13,1.2z M13,11.9
				c-2.5,0-4.6-2.1-4.6-4.6s2.1-4.6,4.6-4.6s4.6,2.1,4.6,4.6S15.5,11.9,13,11.9z"/>
		</g>
	</g>
	<g>
		<g>
			<path fill="#FFFFFF" d="M16.7,14.7H9.3c-4.9,0-8.9,4-8.9,8.9c0,0.7,0.5,1.2,1.2,1.2h22.7c0.7,0,1.2-0.5,1.2-1.2
				C25.6,18.7,21.6,14.7,16.7,14.7z M1.4,23.4c0.7-4.2,3.7-7.3,7.4-7.3h8.4c3.7,0,6.7,3.2,7.4,7.3H1.4z"/>
		</g>
	</g>
</g>
</svg>
