<?xml version="1.0" encoding="utf-8"?>
<!-- Generator: Adobe Illustrator 21.0.2, SVG Export Plug-In . SVG Version: 6.00 Build 0)  -->
<svg version="1.1" id="Capa_1" xmlns="http://www.w3.org/2000/svg" xmlns:xlink="http://www.w3.org/1999/xlink" x="0px" y="0px"
	 viewBox="0 0 185.8 64" enable-background="new 0 0 185.8 64" xml:space="preserve">
<g>
	<g>
		<polygon fill="#FFFFFF" points="927.4,265.1 936.7,210.2 951.6,210.2 942.3,265.1 		"/>
		<path fill="#FFFFFF" d="M996.5,211.6c-3-1.1-7.6-2.3-13.4-2.3c-14.8,0-25.2,7.4-25.3,18.1c-0.1,7.9,7.4,12.3,13.1,14.9
			c5.8,2.7,7.8,4.4,7.7,6.8c0,3.7-4.6,5.4-8.9,5.4c-6,0-9.2-0.8-14.1-2.9l-1.9-0.9l-2.1,12.3c3.5,1.5,9.9,2.9,16.7,2.9
			c15.7,0,25.9-7.4,26-18.7c0.1-6.2-3.9-11-12.6-14.9c-5.2-2.5-8.4-4.2-8.4-6.8c0-2.3,2.7-4.7,8.6-4.7c4.9-0.1,8.4,1,11.2,2.1
			l1.3,0.6L996.5,211.6"/>
		<path fill="#FFFFFF" d="M1034.8,210.3h-11.6c-3.6,0-6.3,1-7.8,4.5l-22.2,50.3h15.7c0,0,2.6-6.8,3.1-8.2c1.7,0,17,0,19.1,0
			c0.4,1.9,1.8,8.2,1.8,8.2h13.9L1034.8,210.3 M1016.4,245.6c1.2-3.2,6-15.3,6-15.3c-0.1,0.1,1.2-3.2,2-5.2l1,4.7
			c0,0,2.9,13.1,3.5,15.8H1016.4z"/>
		<path fill="#FFFFFF" d="M914.8,210.2l-14.6,37.4l-1.6-7.6c-2.7-8.8-11.2-18.3-20.7-23l13.4,48l15.8,0l23.5-54.7H914.8"/>
		<path fill="#FFFFFF" d="M886.6,210.2h-24.1l-0.2,1.1c18.8,4.5,31.2,15.5,36.3,28.7l-5.2-25.2C892.5,211.4,889.9,210.3,886.6,210.2
			"/>
	</g>
</g>
<g>
	<g>
		<polygon fill="#FFFFFF" points="65.4,59.1 74.7,4.2 89.6,4.2 80.3,59.1 		"/>
		<path fill="#FFFFFF" d="M134.5,5.6c-3-1.1-7.6-2.3-13.4-2.3c-14.8,0-25.2,7.4-25.3,18.1c-0.1,7.9,7.4,12.3,13.1,14.9
			c5.8,2.7,7.8,4.4,7.7,6.8c0,3.7-4.6,5.4-8.9,5.4c-6,0-9.2-0.8-14.1-2.9l-1.9-0.9l-2.1,12.3c3.5,1.5,9.9,2.9,16.7,2.9
			c15.7,0,25.9-7.4,26-18.7c0.1-6.2-3.9-11-12.6-14.9c-5.2-2.5-8.4-4.2-8.4-6.8c0-2.3,2.7-4.7,8.6-4.7c4.9-0.1,8.4,1,11.2,2.1
			l1.3,0.6L134.5,5.6"/>
		<path fill="#FFFFFF" d="M172.8,4.3h-11.6c-3.6,0-6.3,1-7.8,4.5l-22.2,50.3H147c0,0,2.6-6.8,3.1-8.2c1.7,0,17,0,19.1,0
			c0.4,1.9,1.8,8.2,1.8,8.2h13.9L172.8,4.3 M154.4,39.6c1.2-3.2,6-15.3,6-15.3c-0.1,0.1,1.2-3.2,2-5.2l1,4.7c0,0,2.9,13.1,3.5,15.8
			H154.4z"/>
		<path fill="#FFFFFF" d="M52.8,4.2L38.2,41.6L36.6,34c-2.7-8.8-11.2-18.3-20.7-23l13.4,48l15.8,0L68.7,4.2H52.8"/>
		<path fill="#FFFFFF" d="M24.6,4.2H0.5L0.3,5.4C19.1,9.9,31.5,20.9,36.6,34L31.4,8.8C30.5,5.4,27.9,4.3,24.6,4.2"/>
	</g>
</g>
</svg>
